<svg xmlns="http://www.w3.org/2000/svg" version="1.1" xmlns:xlink="http://www.w3.org/1999/xlink" xmlns:svgjs="http://svgjs.dev/svgjs" width="1440" height="560" preserveAspectRatio="none" viewBox="0 0 1440 560"><g mask="url(&quot;#SvgjsMask1000&quot;)" fill="none"><rect width="1440" height="560" x="0" y="0" fill="#0e2a47"></rect><path d="M632.79 46.09 a25.65 25.65 0 1 0 51.3 0 a25.65 25.65 0 1 0 -51.3 0z" stroke="#037b0b"></path><path d="M699.04 402.57L704.53 402.57L704.53 408.06L699.04 408.06z" stroke="#d3b714"></path><path d="M406.19 222.46L458.99 222.46L458.99 265.7L406.19 265.7z" stroke="#037b0b"></path><path d="M1102.86 9.96a0.78 0.78 0 1 0 0.89-1.28z" fill="#037b0b"></path><path d="M144.54 461.23L146.06 461.23L146.06 498.53L144.54 498.53z" fill="#d3b714"></path><path d="M545.69 301.15 a22.19 22.19 0 1 0 44.38 0 a22.19 22.19 0 1 0 -44.38 0z" stroke="#e73635"></path><path d="M38.52 489.57 a54.18 54.18 0 1 0 108.36 0 a54.18 54.18 0 1 0 -108.36 0z" stroke="#d3b714"></path><path d="M338.95 372.62 a16.53 16.53 0 1 0 33.06 0 a16.53 16.53 0 1 0 -33.06 0z" stroke="#e73635"></path><path d="M979.23 84.14a2.78 2.78 0 1 0-4.09-3.76z" fill="#037b0b"></path><path d="M1031.79 217.94L1074 217.94L1074 260.15L1031.79 260.15z" stroke="#e73635"></path><path d="M405.43 404.55 a21.66 21.66 0 1 0 43.32 0 a21.66 21.66 0 1 0 -43.32 0z" fill="#d3b714"></path><path d="M1371.96 62.14L1404.04 62.14L1404.04 102.03L1371.96 102.03z" stroke="#e73635"></path><path d="M969.71 53.12a13.16 13.16 0 1 0 22.16-14.19z" fill="#e73635"></path><path d="M713.52 270.41a38.91 38.91 0 1 0 71.74 30.16z" fill="#037b0b"></path><path d="M118.56 59.18L133.85 59.18L133.85 74.47L118.56 74.47z" fill="#d3b714"></path><path d="M1117.32 283.7 a4.17 4.17 0 1 0 8.34 0 a4.17 4.17 0 1 0 -8.34 0z" stroke="#e73635"></path><path d="M560.52 311.12L563.26 311.12L563.26 343.64L560.52 343.64z" fill="#037b0b"></path><path d="M855.77 534.76a46.23 46.23 0 1 0 91.95 9.7z" fill="#e73635"></path><path d="M108.73 360.64L158.28 360.64L158.28 410.19L108.73 410.19z" fill="#d3b714"></path><path d="M1407.29 133.49L1426.25 133.49L1426.25 152.45L1407.29 152.45z" fill="#e73635"></path><path d="M80.17 407.51L111.49 407.51L111.49 438.83L80.17 438.83z" stroke="#d3b714"></path><path d="M799.11 161.07a21.41 21.41 0 1 0-10.49-41.51z" stroke="#d3b714"></path><path d="M1391.55 234.76L1427.97 234.76L1427.97 271.18L1391.55 271.18z" stroke="#e73635"></path><path d="M1075.13 293.59 a22.02 22.02 0 1 0 44.04 0 a22.02 22.02 0 1 0 -44.04 0z" stroke="#e73635"></path><path d="M289.89 325.82a55.94 55.94 0 1 0 20.25-110.03z" stroke="#037b0b"></path><path d="M942.07 443.53L975.19 443.53L975.19 476.65L942.07 476.65z" stroke="#d3b714"></path><path d="M226.36 190.14L234.51 190.14L234.51 198.29L226.36 198.29z" stroke="#037b0b"></path><path d="M1051.21 341.38 a3.91 3.91 0 1 0 7.82 0 a3.91 3.91 0 1 0 -7.82 0z" stroke="#d3b714"></path><path d="M67.67 343.53a11.98 11.98 0 1 0 23.5 4.71z" fill="#d3b714"></path><path d="M608.88 227.09L656.46 227.09L656.46 233.58L608.88 233.58z" stroke="#d3b714"></path><path d="M1315.1 234.88 a19.41 19.41 0 1 0 38.82 0 a19.41 19.41 0 1 0 -38.82 0z" fill="#d3b714"></path><path d="M621.41 82.96L633.3 82.96L633.3 94.85L621.41 94.85z" fill="#037b0b"></path><path d="M1097.72 547.64 a10.46 10.46 0 1 0 20.92 0 a10.46 10.46 0 1 0 -20.92 0z" stroke="#d3b714"></path></g><defs><mask id="SvgjsMask1000"><rect width="1440" height="560" fill="#ffffff"></rect></mask></defs></svg>