<svg xmlns="http://www.w3.org/2000/svg" version="1.1" xmlns:xlink="http://www.w3.org/1999/xlink" xmlns:svgjs="http://svgjs.dev/svgjs" width="1440" height="560" preserveAspectRatio="none" viewBox="0 0 1440 560"><g mask="url(&quot;#SvgjsMask1953&quot;)" fill="none"><path d="M46.31 -45.23L111.26 -7.73L111.26 67.27L46.31 104.77L-18.64 67.27L-18.64 -7.73zM111.26 67.27L176.22 104.77L176.22 179.77L111.26 217.27L46.31 179.77L46.31 104.77zM46.31 179.77L111.26 217.27L111.26 292.27L46.31 329.77L-18.64 292.27L-18.64 217.27zM111.26 292.27L176.22 329.77L176.22 404.77L111.26 442.27L46.31 404.77L46.31 329.77zM46.31 404.77L111.26 442.27L111.26 517.27L46.31 554.77L-18.64 517.27L-18.64 442.27zM176.22 -45.23L241.17 -7.73L241.17 67.27L176.22 104.77L111.26 67.27L111.26 -7.73zM241.17 517.27L306.13 554.77L306.13 629.77L241.17 667.27L176.22 629.77L176.22 554.77zM306.13 -45.23L371.08 -7.73L371.08 67.27L306.13 104.77L241.17 67.27L241.17 -7.73zM371.08 292.27L436.03 329.77L436.03 404.77L371.08 442.27L306.13 404.77L306.13 329.77zM436.03 -45.23L500.99 -7.73L500.99 67.27L436.03 104.77L371.08 67.27L371.08 -7.73zM500.99 67.27L565.94 104.77L565.94 179.77L500.99 217.27L436.03 179.77L436.03 104.77zM436.03 179.77L500.99 217.27L500.99 292.27L436.03 329.77L371.08 292.27L371.08 217.27zM500.99 292.27L565.94 329.77L565.94 404.77L500.99 442.27L436.03 404.77L436.03 329.77zM500.99 517.27L565.94 554.77L565.94 629.77L500.99 667.27L436.03 629.77L436.03 554.77zM630.89 517.27L695.85 554.77L695.85 629.77L630.89 667.27L565.94 629.77L565.94 554.77zM760.8 67.27L825.76 104.77L825.76 179.77L760.8 217.27L695.85 179.77L695.85 104.77zM695.85 179.77L760.8 217.27L760.8 292.27L695.85 329.77L630.89 292.27L630.89 217.27zM760.8 292.27L825.76 329.77L825.76 404.77L760.8 442.27L695.85 404.77L695.85 329.77zM825.75 -45.23L890.71 -7.73L890.71 67.27L825.75 104.77L760.8 67.27L760.8 -7.73zM890.71 67.27L955.66 104.77L955.66 179.77L890.71 217.27L825.75 179.77L825.75 104.77zM825.75 179.77L890.71 217.27L890.71 292.27L825.75 329.77L760.8 292.27L760.8 217.27zM825.75 404.77L890.71 442.27L890.71 517.27L825.75 554.77L760.8 517.27L760.8 442.27zM1020.62 517.27L1085.57 554.77L1085.57 629.77L1020.62 667.27L955.66 629.77L955.66 554.77zM1150.52 67.27L1215.48 104.77L1215.48 179.77L1150.52 217.27L1085.57 179.77L1085.57 104.77zM1085.57 179.77L1150.52 217.27L1150.52 292.27L1085.57 329.77L1020.62 292.27L1020.62 217.27zM1150.52 292.27L1215.48 329.77L1215.48 404.77L1150.52 442.27L1085.57 404.77L1085.57 329.77zM1085.57 404.77L1150.52 442.27L1150.52 517.27L1085.57 554.77L1020.62 517.27L1020.62 442.27zM1150.52 517.27L1215.48 554.77L1215.48 629.77L1150.52 667.27L1085.57 629.77L1085.57 554.77zM1280.43 67.27L1345.38 104.77L1345.38 179.77L1280.43 217.27L1215.48 179.77L1215.48 104.77zM1280.43 292.27L1345.38 329.77L1345.38 404.77L1280.43 442.27L1215.48 404.77L1215.48 329.77zM1345.38 -45.23L1410.34 -7.73L1410.34 67.27L1345.38 104.77L1280.43 67.27L1280.43 -7.73zM1345.38 179.77L1410.34 217.27L1410.34 292.27L1345.38 329.77L1280.43 292.27L1280.43 217.27z" stroke="url(&quot;#SvgjsLinearGradient1954&quot;)" stroke-width="2"></path><path d="M38.81 -45.23 a7.5 7.5 0 1 0 15 0 a7.5 7.5 0 1 0 -15 0zM103.76 -7.73 a7.5 7.5 0 1 0 15 0 a7.5 7.5 0 1 0 -15 0zM103.76 67.27 a7.5 7.5 0 1 0 15 0 a7.5 7.5 0 1 0 -15 0zM38.81 104.77 a7.5 7.5 0 1 0 15 0 a7.5 7.5 0 1 0 -15 0zM-26.14 67.27 a7.5 7.5 0 1 0 15 0 a7.5 7.5 0 1 0 -15 0zM-26.14 -7.73 a7.5 7.5 0 1 0 15 0 a7.5 7.5 0 1 0 -15 0zM168.72 104.77 a7.5 7.5 0 1 0 15 0 a7.5 7.5 0 1 0 -15 0zM168.72 179.77 a7.5 7.5 0 1 0 15 0 a7.5 7.5 0 1 0 -15 0zM103.76 217.27 a7.5 7.5 0 1 0 15 0 a7.5 7.5 0 1 0 -15 0zM38.81 179.77 a7.5 7.5 0 1 0 15 0 a7.5 7.5 0 1 0 -15 0zM103.76 292.27 a7.5 7.5 0 1 0 15 0 a7.5 7.5 0 1 0 -15 0zM38.81 329.77 a7.5 7.5 0 1 0 15 0 a7.5 7.5 0 1 0 -15 0zM-26.14 292.27 a7.5 7.5 0 1 0 15 0 a7.5 7.5 0 1 0 -15 0zM-26.14 217.27 a7.5 7.5 0 1 0 15 0 a7.5 7.5 0 1 0 -15 0zM168.72 329.77 a7.5 7.5 0 1 0 15 0 a7.5 7.5 0 1 0 -15 0zM168.72 404.77 a7.5 7.5 0 1 0 15 0 a7.5 7.5 0 1 0 -15 0zM103.76 442.27 a7.5 7.5 0 1 0 15 0 a7.5 7.5 0 1 0 -15 0zM38.81 404.77 a7.5 7.5 0 1 0 15 0 a7.5 7.5 0 1 0 -15 0zM103.76 517.27 a7.5 7.5 0 1 0 15 0 a7.5 7.5 0 1 0 -15 0zM38.81 554.77 a7.5 7.5 0 1 0 15 0 a7.5 7.5 0 1 0 -15 0zM-26.14 517.27 a7.5 7.5 0 1 0 15 0 a7.5 7.5 0 1 0 -15 0zM-26.14 442.27 a7.5 7.5 0 1 0 15 0 a7.5 7.5 0 1 0 -15 0zM168.72 -45.23 a7.5 7.5 0 1 0 15 0 a7.5 7.5 0 1 0 -15 0zM233.67 -7.73 a7.5 7.5 0 1 0 15 0 a7.5 7.5 0 1 0 -15 0zM233.67 67.27 a7.5 7.5 0 1 0 15 0 a7.5 7.5 0 1 0 -15 0zM233.67 517.27 a7.5 7.5 0 1 0 15 0 a7.5 7.5 0 1 0 -15 0zM298.63 554.77 a7.5 7.5 0 1 0 15 0 a7.5 7.5 0 1 0 -15 0zM298.63 629.77 a7.5 7.5 0 1 0 15 0 a7.5 7.5 0 1 0 -15 0zM233.67 667.27 a7.5 7.5 0 1 0 15 0 a7.5 7.5 0 1 0 -15 0zM168.72 629.77 a7.5 7.5 0 1 0 15 0 a7.5 7.5 0 1 0 -15 0zM168.72 554.77 a7.5 7.5 0 1 0 15 0 a7.5 7.5 0 1 0 -15 0zM298.63 -45.23 a7.5 7.5 0 1 0 15 0 a7.5 7.5 0 1 0 -15 0zM363.58 -7.73 a7.5 7.5 0 1 0 15 0 a7.5 7.5 0 1 0 -15 0zM363.58 67.27 a7.5 7.5 0 1 0 15 0 a7.5 7.5 0 1 0 -15 0zM298.63 104.77 a7.5 7.5 0 1 0 15 0 a7.5 7.5 0 1 0 -15 0zM363.58 292.27 a7.5 7.5 0 1 0 15 0 a7.5 7.5 0 1 0 -15 0zM428.53 329.77 a7.5 7.5 0 1 0 15 0 a7.5 7.5 0 1 0 -15 0zM428.53 404.77 a7.5 7.5 0 1 0 15 0 a7.5 7.5 0 1 0 -15 0zM363.58 442.27 a7.5 7.5 0 1 0 15 0 a7.5 7.5 0 1 0 -15 0zM298.63 404.77 a7.5 7.5 0 1 0 15 0 a7.5 7.5 0 1 0 -15 0zM298.63 329.77 a7.5 7.5 0 1 0 15 0 a7.5 7.5 0 1 0 -15 0zM428.53 -45.23 a7.5 7.5 0 1 0 15 0 a7.5 7.5 0 1 0 -15 0zM493.49 -7.73 a7.5 7.5 0 1 0 15 0 a7.5 7.5 0 1 0 -15 0zM493.49 67.27 a7.5 7.5 0 1 0 15 0 a7.5 7.5 0 1 0 -15 0zM428.53 104.77 a7.5 7.5 0 1 0 15 0 a7.5 7.5 0 1 0 -15 0zM558.44 104.77 a7.5 7.5 0 1 0 15 0 a7.5 7.5 0 1 0 -15 0zM558.44 179.77 a7.5 7.5 0 1 0 15 0 a7.5 7.5 0 1 0 -15 0zM493.49 217.27 a7.5 7.5 0 1 0 15 0 a7.5 7.5 0 1 0 -15 0zM428.53 179.77 a7.5 7.5 0 1 0 15 0 a7.5 7.5 0 1 0 -15 0zM493.49 292.27 a7.5 7.5 0 1 0 15 0 a7.5 7.5 0 1 0 -15 0zM363.58 217.27 a7.5 7.5 0 1 0 15 0 a7.5 7.5 0 1 0 -15 0zM558.44 329.77 a7.5 7.5 0 1 0 15 0 a7.5 7.5 0 1 0 -15 0zM558.44 404.77 a7.5 7.5 0 1 0 15 0 a7.5 7.5 0 1 0 -15 0zM493.49 442.27 a7.5 7.5 0 1 0 15 0 a7.5 7.5 0 1 0 -15 0zM493.49 517.27 a7.5 7.5 0 1 0 15 0 a7.5 7.5 0 1 0 -15 0zM558.44 554.77 a7.5 7.5 0 1 0 15 0 a7.5 7.5 0 1 0 -15 0zM558.44 629.77 a7.5 7.5 0 1 0 15 0 a7.5 7.5 0 1 0 -15 0zM493.49 667.27 a7.5 7.5 0 1 0 15 0 a7.5 7.5 0 1 0 -15 0zM428.53 629.77 a7.5 7.5 0 1 0 15 0 a7.5 7.5 0 1 0 -15 0zM428.53 554.77 a7.5 7.5 0 1 0 15 0 a7.5 7.5 0 1 0 -15 0zM623.39 517.27 a7.5 7.5 0 1 0 15 0 a7.5 7.5 0 1 0 -15 0zM688.35 554.77 a7.5 7.5 0 1 0 15 0 a7.5 7.5 0 1 0 -15 0zM688.35 629.77 a7.5 7.5 0 1 0 15 0 a7.5 7.5 0 1 0 -15 0zM623.39 667.27 a7.5 7.5 0 1 0 15 0 a7.5 7.5 0 1 0 -15 0zM753.3 67.27 a7.5 7.5 0 1 0 15 0 a7.5 7.5 0 1 0 -15 0zM818.26 104.77 a7.5 7.5 0 1 0 15 0 a7.5 7.5 0 1 0 -15 0zM818.26 179.77 a7.5 7.5 0 1 0 15 0 a7.5 7.5 0 1 0 -15 0zM753.3 217.27 a7.5 7.5 0 1 0 15 0 a7.5 7.5 0 1 0 -15 0zM688.35 179.77 a7.5 7.5 0 1 0 15 0 a7.5 7.5 0 1 0 -15 0zM688.35 104.77 a7.5 7.5 0 1 0 15 0 a7.5 7.5 0 1 0 -15 0zM753.3 292.27 a7.5 7.5 0 1 0 15 0 a7.5 7.5 0 1 0 -15 0zM688.35 329.77 a7.5 7.5 0 1 0 15 0 a7.5 7.5 0 1 0 -15 0zM623.39 292.27 a7.5 7.5 0 1 0 15 0 a7.5 7.5 0 1 0 -15 0zM623.39 217.27 a7.5 7.5 0 1 0 15 0 a7.5 7.5 0 1 0 -15 0zM818.26 329.77 a7.5 7.5 0 1 0 15 0 a7.5 7.5 0 1 0 -15 0zM818.26 404.77 a7.5 7.5 0 1 0 15 0 a7.5 7.5 0 1 0 -15 0zM753.3 442.27 a7.5 7.5 0 1 0 15 0 a7.5 7.5 0 1 0 -15 0zM688.35 404.77 a7.5 7.5 0 1 0 15 0 a7.5 7.5 0 1 0 -15 0zM818.25 -45.23 a7.5 7.5 0 1 0 15 0 a7.5 7.5 0 1 0 -15 0zM883.21 -7.73 a7.5 7.5 0 1 0 15 0 a7.5 7.5 0 1 0 -15 0zM883.21 67.27 a7.5 7.5 0 1 0 15 0 a7.5 7.5 0 1 0 -15 0zM818.25 104.77 a7.5 7.5 0 1 0 15 0 a7.5 7.5 0 1 0 -15 0zM753.3 -7.73 a7.5 7.5 0 1 0 15 0 a7.5 7.5 0 1 0 -15 0zM948.16 104.77 a7.5 7.5 0 1 0 15 0 a7.5 7.5 0 1 0 -15 0zM948.16 179.77 a7.5 7.5 0 1 0 15 0 a7.5 7.5 0 1 0 -15 0zM883.21 217.27 a7.5 7.5 0 1 0 15 0 a7.5 7.5 0 1 0 -15 0zM818.25 179.77 a7.5 7.5 0 1 0 15 0 a7.5 7.5 0 1 0 -15 0zM883.21 292.27 a7.5 7.5 0 1 0 15 0 a7.5 7.5 0 1 0 -15 0zM818.25 329.77 a7.5 7.5 0 1 0 15 0 a7.5 7.5 0 1 0 -15 0zM818.25 404.77 a7.5 7.5 0 1 0 15 0 a7.5 7.5 0 1 0 -15 0zM883.21 442.27 a7.5 7.5 0 1 0 15 0 a7.5 7.5 0 1 0 -15 0zM883.21 517.27 a7.5 7.5 0 1 0 15 0 a7.5 7.5 0 1 0 -15 0zM818.25 554.77 a7.5 7.5 0 1 0 15 0 a7.5 7.5 0 1 0 -15 0zM753.3 517.27 a7.5 7.5 0 1 0 15 0 a7.5 7.5 0 1 0 -15 0zM1013.12 517.27 a7.5 7.5 0 1 0 15 0 a7.5 7.5 0 1 0 -15 0zM1078.07 554.77 a7.5 7.5 0 1 0 15 0 a7.5 7.5 0 1 0 -15 0zM1078.07 629.77 a7.5 7.5 0 1 0 15 0 a7.5 7.5 0 1 0 -15 0zM1013.12 667.27 a7.5 7.5 0 1 0 15 0 a7.5 7.5 0 1 0 -15 0zM948.16 629.77 a7.5 7.5 0 1 0 15 0 a7.5 7.5 0 1 0 -15 0zM948.16 554.77 a7.5 7.5 0 1 0 15 0 a7.5 7.5 0 1 0 -15 0zM1143.02 67.27 a7.5 7.5 0 1 0 15 0 a7.5 7.5 0 1 0 -15 0zM1207.98 104.77 a7.5 7.5 0 1 0 15 0 a7.5 7.5 0 1 0 -15 0zM1207.98 179.77 a7.5 7.5 0 1 0 15 0 a7.5 7.5 0 1 0 -15 0zM1143.02 217.27 a7.5 7.5 0 1 0 15 0 a7.5 7.5 0 1 0 -15 0zM1078.07 179.77 a7.5 7.5 0 1 0 15 0 a7.5 7.5 0 1 0 -15 0zM1078.07 104.77 a7.5 7.5 0 1 0 15 0 a7.5 7.5 0 1 0 -15 0zM1143.02 292.27 a7.5 7.5 0 1 0 15 0 a7.5 7.5 0 1 0 -15 0zM1078.07 329.77 a7.5 7.5 0 1 0 15 0 a7.5 7.5 0 1 0 -15 0zM1013.12 292.27 a7.5 7.5 0 1 0 15 0 a7.5 7.5 0 1 0 -15 0zM1013.12 217.27 a7.5 7.5 0 1 0 15 0 a7.5 7.5 0 1 0 -15 0zM1207.98 329.77 a7.5 7.5 0 1 0 15 0 a7.5 7.5 0 1 0 -15 0zM1207.98 404.77 a7.5 7.5 0 1 0 15 0 a7.5 7.5 0 1 0 -15 0zM1143.02 442.27 a7.5 7.5 0 1 0 15 0 a7.5 7.5 0 1 0 -15 0zM1078.07 404.77 a7.5 7.5 0 1 0 15 0 a7.5 7.5 0 1 0 -15 0zM1143.02 517.27 a7.5 7.5 0 1 0 15 0 a7.5 7.5 0 1 0 -15 0zM1013.12 442.27 a7.5 7.5 0 1 0 15 0 a7.5 7.5 0 1 0 -15 0zM1207.98 554.77 a7.5 7.5 0 1 0 15 0 a7.5 7.5 0 1 0 -15 0zM1207.98 629.77 a7.5 7.5 0 1 0 15 0 a7.5 7.5 0 1 0 -15 0zM1143.02 667.27 a7.5 7.5 0 1 0 15 0 a7.5 7.5 0 1 0 -15 0zM1272.93 67.27 a7.5 7.5 0 1 0 15 0 a7.5 7.5 0 1 0 -15 0zM1337.88 104.77 a7.5 7.5 0 1 0 15 0 a7.5 7.5 0 1 0 -15 0zM1337.88 179.77 a7.5 7.5 0 1 0 15 0 a7.5 7.5 0 1 0 -15 0zM1272.93 217.27 a7.5 7.5 0 1 0 15 0 a7.5 7.5 0 1 0 -15 0zM1272.93 292.27 a7.5 7.5 0 1 0 15 0 a7.5 7.5 0 1 0 -15 0zM1337.88 329.77 a7.5 7.5 0 1 0 15 0 a7.5 7.5 0 1 0 -15 0zM1337.88 404.77 a7.5 7.5 0 1 0 15 0 a7.5 7.5 0 1 0 -15 0zM1272.93 442.27 a7.5 7.5 0 1 0 15 0 a7.5 7.5 0 1 0 -15 0zM1337.88 -45.23 a7.5 7.5 0 1 0 15 0 a7.5 7.5 0 1 0 -15 0zM1402.84 -7.73 a7.5 7.5 0 1 0 15 0 a7.5 7.5 0 1 0 -15 0zM1402.84 67.27 a7.5 7.5 0 1 0 15 0 a7.5 7.5 0 1 0 -15 0zM1272.93 -7.73 a7.5 7.5 0 1 0 15 0 a7.5 7.5 0 1 0 -15 0zM1402.84 217.27 a7.5 7.5 0 1 0 15 0 a7.5 7.5 0 1 0 -15 0zM1402.84 292.27 a7.5 7.5 0 1 0 15 0 a7.5 7.5 0 1 0 -15 0z" fill="url(&quot;#SvgjsLinearGradient1954&quot;)"></path></g><defs><mask id="SvgjsMask1953"><rect width="1440" height="560" fill="#ffffff"></rect></mask><linearGradient x1="1440" y1="280" x2="0" y2="280" gradientUnits="userSpaceOnUse" id="SvgjsLinearGradient1954"><stop stop-color="rgba(158, 0, 129, 1)" offset="0"></stop><stop stop-color="rgba(6, 17, 66, 1)" offset="1"></stop></linearGradient></defs></svg>