<svg id="sw-js-blob-svg" viewBox="0 0 100 100" xmlns="http://www.w3.org/2000/svg" version="1.1">
    <defs> 
        <linearGradient id="sw-gradient" x1="0" x2="1" y1="1" y2="0">
            <stop id="stop1" stop-color="rgba(248, 117, 55, 1)" offset="0%"></stop>
            <stop id="stop2" stop-color="rgba(251, 168, 31, 1)" offset="100%"></stop>
        </linearGradient>
    </defs>
<path fill="url(#sw-gradient)" d="M28.6,-34.3C36.2,-27.6,41,-17.9,41.9,-8C42.9,1.8,40.1,11.6,35.1,20.4C30.2,29.2,23.2,36.9,14.9,39C6.7,41.1,-2.9,37.6,-10.9,33.2C-18.9,28.9,-25.3,23.6,-30.3,16.7C-35.2,9.8,-38.6,1.2,-37.6,-7C-36.5,-15.1,-31.1,-22.8,-24.1,-29.6C-17.1,-36.5,-8.5,-42.4,1,-43.5C10.5,-44.7,20.9,-41,28.6,-34.3Z" width="100%" height="100%" transform="translate(50 50)" style="transition: all 0.3s ease 0s;" stroke-width="0"></path>
</svg>