<svg xmlns="http://www.w3.org/2000/svg" version="1.1" xmlns:xlink="http://www.w3.org/1999/xlink" xmlns:svgjs="http://svgjs.dev/svgjs" width="1433" height="564" preserveAspectRatio="none" viewBox="0 0 1433 564"><g mask="url(&quot;#SvgjsMask1069&quot;)" fill="none"><path d="M1133 541L738 936" stroke-width="8" stroke="url(&quot;#SvgjsLinearGradient1070&quot;)" stroke-linecap="round" class="TopRight"></path><path d="M549 459L768 240" stroke-width="8" stroke="url(&quot;#SvgjsLinearGradient1070&quot;)" stroke-linecap="round" class="TopRight"></path><path d="M305 494L-20 819" stroke-width="8" stroke="url(&quot;#SvgjsLinearGradient1070&quot;)" stroke-linecap="round" class="TopRight"></path><path d="M281 515L70 726" stroke-width="10" stroke="url(&quot;#SvgjsLinearGradient1070&quot;)" stroke-linecap="round" class="TopRight"></path><path d="M234 349L404 179" stroke-width="10" stroke="url(&quot;#SvgjsLinearGradient1070&quot;)" stroke-linecap="round" class="TopRight"></path><path d="M812 292L1218 -114" stroke-width="8" stroke="url(&quot;#SvgjsLinearGradient1071&quot;)" stroke-linecap="round" class="BottomLeft"></path><path d="M831 9L1219 -379" stroke-width="8" stroke="url(&quot;#SvgjsLinearGradient1071&quot;)" stroke-linecap="round" class="BottomLeft"></path><path d="M146 377L306 217" stroke-width="6" stroke="url(&quot;#SvgjsLinearGradient1071&quot;)" stroke-linecap="round" class="BottomLeft"></path><path d="M541 287L127 701" stroke-width="10" stroke="url(&quot;#SvgjsLinearGradient1071&quot;)" stroke-linecap="round" class="BottomLeft"></path><path d="M696 63L937 -178" stroke-width="8" stroke="url(&quot;#SvgjsLinearGradient1071&quot;)" stroke-linecap="round" class="BottomLeft"></path><path d="M1373 180L1195 358" stroke-width="8" stroke="url(&quot;#SvgjsLinearGradient1070&quot;)" stroke-linecap="round" class="TopRight"></path><path d="M483 397L316 564" stroke-width="6" stroke="url(&quot;#SvgjsLinearGradient1071&quot;)" stroke-linecap="round" class="BottomLeft"></path><path d="M739 51L392 398" stroke-width="10" stroke="url(&quot;#SvgjsLinearGradient1070&quot;)" stroke-linecap="round" class="TopRight"></path><path d="M61 543L211 393" stroke-width="6" stroke="url(&quot;#SvgjsLinearGradient1070&quot;)" stroke-linecap="round" class="TopRight"></path><path d="M259 32L-25 316" stroke-width="8" stroke="url(&quot;#SvgjsLinearGradient1070&quot;)" stroke-linecap="round" class="TopRight"></path><path d="M297 150L-105 552" stroke-width="6" stroke="url(&quot;#SvgjsLinearGradient1071&quot;)" stroke-linecap="round" class="BottomLeft"></path><path d="M982 264L581 665" stroke-width="6" stroke="url(&quot;#SvgjsLinearGradient1070&quot;)" stroke-linecap="round" class="TopRight"></path><path d="M1393 456L1696 153" stroke-width="10" stroke="url(&quot;#SvgjsLinearGradient1070&quot;)" stroke-linecap="round" class="TopRight"></path><path d="M608 510L231 887" stroke-width="10" stroke="url(&quot;#SvgjsLinearGradient1070&quot;)" stroke-linecap="round" class="TopRight"></path><path d="M710 66L936 -160" stroke-width="8" stroke="url(&quot;#SvgjsLinearGradient1070&quot;)" stroke-linecap="round" class="TopRight"></path><path d="M17 199L376 -160" stroke-width="10" stroke="url(&quot;#SvgjsLinearGradient1070&quot;)" stroke-linecap="round" class="TopRight"></path><path d="M712 390L454 648" stroke-width="10" stroke="url(&quot;#SvgjsLinearGradient1071&quot;)" stroke-linecap="round" class="BottomLeft"></path><path d="M425 25L817 -367" stroke-width="8" stroke="url(&quot;#SvgjsLinearGradient1071&quot;)" stroke-linecap="round" class="BottomLeft"></path><path d="M773 268L994 47" stroke-width="6" stroke="url(&quot;#SvgjsLinearGradient1070&quot;)" stroke-linecap="round" class="TopRight"></path><path d="M1260 504L1022 742" stroke-width="10" stroke="url(&quot;#SvgjsLinearGradient1070&quot;)" stroke-linecap="round" class="TopRight"></path><path d="M1056 251L1281 26" stroke-width="10" stroke="url(&quot;#SvgjsLinearGradient1071&quot;)" stroke-linecap="round" class="BottomLeft"></path><path d="M1080 255L1454 -119" stroke-width="6" stroke="url(&quot;#SvgjsLinearGradient1071&quot;)" stroke-linecap="round" class="BottomLeft"></path><path d="M719 135L1134 -280" stroke-width="10" stroke="url(&quot;#SvgjsLinearGradient1070&quot;)" stroke-linecap="round" class="TopRight"></path><path d="M1027 149L816 360" stroke-width="8" stroke="url(&quot;#SvgjsLinearGradient1070&quot;)" stroke-linecap="round" class="TopRight"></path><path d="M1289 178L938 529" stroke-width="6" stroke="url(&quot;#SvgjsLinearGradient1070&quot;)" stroke-linecap="round" class="TopRight"></path><path d="M230 368L590 8" stroke-width="10" stroke="url(&quot;#SvgjsLinearGradient1071&quot;)" stroke-linecap="round" class="BottomLeft"></path><path d="M752 245L921 76" stroke-width="10" stroke="url(&quot;#SvgjsLinearGradient1070&quot;)" stroke-linecap="round" class="TopRight"></path><path d="M93 150L504 -261" stroke-width="6" stroke="url(&quot;#SvgjsLinearGradient1070&quot;)" stroke-linecap="round" class="TopRight"></path><path d="M279 133L130 282" stroke-width="10" stroke="url(&quot;#SvgjsLinearGradient1070&quot;)" stroke-linecap="round" class="TopRight"></path><path d="M8 463L-408 879" stroke-width="10" stroke="url(&quot;#SvgjsLinearGradient1071&quot;)" stroke-linecap="round" class="BottomLeft"></path><path d="M888 288L522 654" stroke-width="6" stroke="url(&quot;#SvgjsLinearGradient1071&quot;)" stroke-linecap="round" class="BottomLeft"></path><path d="M781 188L1191 -222" stroke-width="8" stroke="url(&quot;#SvgjsLinearGradient1071&quot;)" stroke-linecap="round" class="BottomLeft"></path><path d="M319 378L662 35" stroke-width="8" stroke="url(&quot;#SvgjsLinearGradient1071&quot;)" stroke-linecap="round" class="BottomLeft"></path><path d="M995 169L766 398" stroke-width="10" stroke="url(&quot;#SvgjsLinearGradient1071&quot;)" stroke-linecap="round" class="BottomLeft"></path></g><defs><mask id="SvgjsMask1069"><rect width="1433" height="564" fill="#ffffff"></rect></mask><linearGradient x1="0%" y1="100%" x2="100%" y2="0%" id="SvgjsLinearGradient1070"><stop stop-color="rgba(28, 83, 142, 0)" offset="0"></stop><stop stop-color="#1c538e" offset="1"></stop></linearGradient><linearGradient x1="100%" y1="0%" x2="0%" y2="100%" id="SvgjsLinearGradient1071"><stop stop-color="rgba(28, 83, 142, 0)" offset="0"></stop><stop stop-color="#1c538e" offset="1"></stop></linearGradient></defs></svg>